<svg xmlns="http://www.w3.org/2000/svg" width="920" height="268" viewBox="0 0 920 268" font-family="-apple-system,Segoe UI,Helvetica,Arial,sans-serif">
<rect width="920" height="268" fill="#ffffff"/>
<text x="56" y="18" font-size="12" font-weight="600" fill="#1f2328">Pass rate by suite (last 60 runs) — red dot = failing/errored run</text><line x1="56" y1="228.0" x2="770" y2="228.0" stroke="#e1e4e8" stroke-width="1"/><text x="48" y="231.0" font-size="10" fill="#656d76" text-anchor="end">0%</text><line x1="56" y1="178.0" x2="770" y2="178.0" stroke="#e1e4e8" stroke-width="1"/><text x="48" y="181.0" font-size="10" fill="#656d76" text-anchor="end">25%</text><line x1="56" y1="128.0" x2="770" y2="128.0" stroke="#e1e4e8" stroke-width="1"/><text x="48" y="131.0" font-size="10" fill="#656d76" text-anchor="end">50%</text><line x1="56" y1="78.0" x2="770" y2="78.0" stroke="#e1e4e8" stroke-width="1"/><text x="48" y="81.0" font-size="10" fill="#656d76" text-anchor="end">75%</text><line x1="56" y1="28.0" x2="770" y2="28.0" stroke="#e1e4e8" stroke-width="1"/><text x="48" y="31.0" font-size="10" fill="#656d76" text-anchor="end">100%</text><path d="M56.0,28.0 L175.0,28.0 L294.0,28.0 L413.0,28.0 L532.0,28.0 L651.0,28.0 L770.0,28.0" fill="none" stroke="#1f883d" stroke-width="2"/><rect x="786" y="23" width="11" height="11" rx="2" fill="#1f883d"/><text x="802" y="32" font-size="11" fill="#1f2328">helm</text><path d="M56.0,28.0 L175.0,28.0 L294.0,28.0 L413.0,28.0 L532.0,28.0 L651.0,28.0 L770.0,28.0" fill="none" stroke="#0969da" stroke-width="2"/><rect x="786" y="43" width="11" height="11" rx="2" fill="#0969da"/><text x="802" y="52" font-size="11" fill="#1f2328">seed</text><path d="M56.0,228.0 L294.0,228.0 L532.0,228.0 L770.0,228.0" fill="none" stroke="#bf8700" stroke-width="2"/><rect x="786" y="63" width="11" height="11" rx="2" fill="#bf8700"/><text x="802" y="72" font-size="11" fill="#1f2328">coverage</text><path d="M56.0,28.0 L175.0,28.0 L294.0,28.0 L413.0,28.0 L532.0,28.0 L651.0,28.0 L770.0,28.0" fill="none" stroke="#8250df" stroke-width="2"/><rect x="786" y="83" width="11" height="11" rx="2" fill="#8250df"/><text x="802" y="92" font-size="11" fill="#1f2328">temporal</text>
</svg>