<svg xmlns="http://www.w3.org/2000/svg" width="920" height="260" viewBox="0 0 920 260" font-family="-apple-system,Segoe UI,Helvetica,Arial,sans-serif"><rect width="920" height="260" fill="#fff"/><text x="52" y="18" font-size="12" font-weight="600" fill="#1f2328">Security/audit finding count trend</text><line x1="52" y1="224.0" x2="740" y2="224.0" stroke="#e1e4e8" stroke-width="1"/><text x="44" y="227.0" font-size="10" fill="#656d76" text-anchor="end">0</text><line x1="52" y1="175.0" x2="740" y2="175.0" stroke="#e1e4e8" stroke-width="1"/><text x="44" y="178.0" font-size="10" fill="#656d76" text-anchor="end">25</text><line x1="52" y1="126.0" x2="740" y2="126.0" stroke="#e1e4e8" stroke-width="1"/><text x="44" y="129.0" font-size="10" fill="#656d76" text-anchor="end">50</text><line x1="52" y1="77.0" x2="740" y2="77.0" stroke="#e1e4e8" stroke-width="1"/><text x="44" y="80.0" font-size="10" fill="#656d76" text-anchor="end">75</text><line x1="52" y1="28.0" x2="740" y2="28.0" stroke="#e1e4e8" stroke-width="1"/><text x="44" y="31.0" font-size="10" fill="#656d76" text-anchor="end">100</text><path d="M52.0,224.0 L97.9,224.0 L143.7,224.0 L189.6,224.0 L235.5,224.0 L281.3,224.0 L327.2,224.0 L373.1,224.0 L418.9,224.0 L464.8,224.0 L510.7,224.0 L556.5,224.0 L602.4,224.0 L648.3,224.0 L694.1,224.0 L740.0,224.0" fill="none" stroke="#1f883d" stroke-width="2"/><rect x="756" y="23" width="11" height="11" rx="2" fill="#1f883d"/><text x="772" y="32" font-size="11" fill="#1f2328">architecture-audit</text><path d="M52.0,224.0 L95.0,224.0 L138.0,224.0 L181.0,224.0 L224.0,224.0 L267.0,224.0 L310.0,224.0 L353.0,224.0 L396.0,224.0 L439.0,224.0 L482.0,224.0 L525.0,224.0 L568.0,224.0 L611.0,224.0 L654.0,224.0 L697.0,224.0 L740.0,224.0" fill="none" stroke="#0969da" stroke-width="2"/><rect x="756" y="43" width="11" height="11" rx="2" fill="#0969da"/><text x="772" y="52" font-size="11" fill="#1f2328">audit-cis-kubernetes</text><path d="M52.0,224.0 L97.9,224.0 L143.7,224.0 L189.6,224.0 L235.5,224.0 L281.3,224.0 L327.2,224.0 L373.1,224.0 L418.9,224.0 L464.8,224.0 L510.7,224.0 L556.5,224.0 L602.4,224.0 L648.3,224.0 L694.1,224.0 L740.0,224.0" fill="none" stroke="#bf8700" stroke-width="2"/><rect x="756" y="63" width="11" height="11" rx="2" fill="#bf8700"/><text x="772" y="72" font-size="11" fill="#1f2328">audit-azure-security</text></svg>