<svg xmlns="http://www.w3.org/2000/svg" width="920" height="260" viewBox="0 0 920 260" font-family="-apple-system,Segoe UI,Helvetica,Arial,sans-serif"><rect width="920" height="260" fill="#fff"/><text x="52" y="18" font-size="12" font-weight="600" fill="#1f2328">Quality workflow outcomes</text><line x1="52" y1="224.0" x2="740" y2="224.0" stroke="#e1e4e8" stroke-width="1"/><text x="44" y="227.0" font-size="10" fill="#656d76" text-anchor="end">0%</text><line x1="52" y1="175.0" x2="740" y2="175.0" stroke="#e1e4e8" stroke-width="1"/><text x="44" y="178.0" font-size="10" fill="#656d76" text-anchor="end">25%</text><line x1="52" y1="126.0" x2="740" y2="126.0" stroke="#e1e4e8" stroke-width="1"/><text x="44" y="129.0" font-size="10" fill="#656d76" text-anchor="end">50%</text><line x1="52" y1="77.0" x2="740" y2="77.0" stroke="#e1e4e8" stroke-width="1"/><text x="44" y="80.0" font-size="10" fill="#656d76" text-anchor="end">75%</text><line x1="52" y1="28.0" x2="740" y2="28.0" stroke="#e1e4e8" stroke-width="1"/><text x="44" y="31.0" font-size="10" fill="#656d76" text-anchor="end">100%</text><path d="M52.0,224.0 L740.0,224.0" fill="none" stroke="#1f883d" stroke-width="2"/><rect x="756" y="23" width="11" height="11" rx="2" fill="#1f883d"/><text x="772" y="32" font-size="11" fill="#1f2328">validate-dsl-definitions</text><path d="M52.0,224.0 L75.7,224.0 L99.4,224.0 L123.2,224.0 L146.9,224.0 L170.6,224.0 L194.3,224.0 L218.1,224.0 L241.8,224.0 L265.5,224.0 L289.2,224.0 L313.0,224.0 L336.7,224.0 L360.4,224.0 L384.1,224.0 L407.9,224.0 L431.6,224.0 L455.3,224.0 L479.0,224.0 L502.8,224.0 L526.5,224.0 L550.2,224.0 L573.9,224.0 L597.7,224.0 L621.4,224.0 L645.1,224.0 L668.8,224.0 L692.6,224.0 L716.3,224.0 L740.0,224.0" fill="none" stroke="#0969da" stroke-width="2"/><rect x="756" y="43" width="11" height="11" rx="2" fill="#0969da"/><text x="772" y="52" font-size="11" fill="#1f2328">code-quality</text></svg>