<svg xmlns="http://www.w3.org/2000/svg" width="920" height="260" viewBox="0 0 920 260" font-family="-apple-system,Segoe UI,Helvetica,Arial,sans-serif"><rect width="920" height="260" fill="#fff"/><text x="52" y="18" font-size="12" font-weight="600" fill="#1f2328">Security/audit finding count trend</text><line x1="52" y1="224.0" x2="740" y2="224.0" stroke="#e1e4e8" stroke-width="1"/><text x="44" y="227.0" font-size="10" fill="#656d76" text-anchor="end">0</text><line x1="52" y1="175.0" x2="740" y2="175.0" stroke="#e1e4e8" stroke-width="1"/><text x="44" y="178.0" font-size="10" fill="#656d76" text-anchor="end">25</text><line x1="52" y1="126.0" x2="740" y2="126.0" stroke="#e1e4e8" stroke-width="1"/><text x="44" y="129.0" font-size="10" fill="#656d76" text-anchor="end">50</text><line x1="52" y1="77.0" x2="740" y2="77.0" stroke="#e1e4e8" stroke-width="1"/><text x="44" y="80.0" font-size="10" fill="#656d76" text-anchor="end">75</text><line x1="52" y1="28.0" x2="740" y2="28.0" stroke="#e1e4e8" stroke-width="1"/><text x="44" y="31.0" font-size="10" fill="#656d76" text-anchor="end">100</text><path d="M52.0,224.0 L81.9,224.0 L111.8,224.0 L141.7,224.0 L171.7,224.0 L201.6,224.0 L231.5,224.0 L261.4,224.0 L291.3,224.0 L321.2,224.0 L351.1,224.0 L381.0,224.0 L411.0,224.0 L440.9,224.0 L470.8,224.0 L500.7,224.0 L530.6,224.0 L560.5,224.0 L590.4,224.0 L620.3,224.0 L650.3,224.0 L680.2,224.0 L710.1,224.0 L740.0,224.0" fill="none" stroke="#1f883d" stroke-width="2"/><rect x="756" y="23" width="11" height="11" rx="2" fill="#1f883d"/><text x="772" y="32" font-size="11" fill="#1f2328">architecture-audit</text><path d="M52.0,224.0 L81.9,224.0 L111.8,224.0 L141.7,224.0 L171.7,224.0 L201.6,224.0 L231.5,224.0 L261.4,224.0 L291.3,224.0 L321.2,224.0 L351.1,224.0 L381.0,224.0 L411.0,224.0 L440.9,224.0 L470.8,224.0 L500.7,224.0 L530.6,224.0 L560.5,224.0 L590.4,224.0 L620.3,224.0 L650.3,224.0 L680.2,224.0 L710.1,224.0 L740.0,224.0" fill="none" stroke="#0969da" stroke-width="2"/><rect x="756" y="43" width="11" height="11" rx="2" fill="#0969da"/><text x="772" y="52" font-size="11" fill="#1f2328">audit-cis-kubernetes</text><path d="M52.0,224.0 L83.3,224.0 L114.5,224.0 L145.8,224.0 L177.1,224.0 L208.4,224.0 L239.6,224.0 L270.9,224.0 L302.2,224.0 L333.5,224.0 L364.7,224.0 L396.0,224.0 L427.3,224.0 L458.5,224.0 L489.8,224.0 L521.1,224.0 L552.4,224.0 L583.6,224.0 L614.9,224.0 L646.2,224.0 L677.5,224.0 L708.7,224.0 L740.0,224.0" fill="none" stroke="#bf8700" stroke-width="2"/><rect x="756" y="63" width="11" height="11" rx="2" fill="#bf8700"/><text x="772" y="72" font-size="11" fill="#1f2328">audit-azure-security</text></svg>